<svg xmlns="http://www.w3.org/2000/svg" xmlns:xlink="http://www.w3.org/1999/xlink" width="1920" zoomAndPan="magnify" viewBox="0 0 1440 449.999984" height="600" preserveAspectRatio="xMidYMid meet" version="1.0"><defs><g/></defs><g fill="#ff5757" fill-opacity="1"><g transform="translate(56.812522, 371.700062)"><g><path d="M 28.078125 -221.828125 L 45.859375 -221.828125 L 45.859375 -87.515625 C 45.859375 -76.910156 47.648438 -67.003906 51.234375 -57.796875 C 54.828125 -48.585938 59.742188 -40.628906 65.984375 -33.921875 C 72.222656 -27.222656 79.707031 -21.921875 88.4375 -18.015625 C 97.175781 -14.117188 106.695312 -12.171875 117 -12.171875 C 126.976562 -12.171875 136.332031 -14.039062 145.0625 -17.78125 C 153.800781 -21.53125 161.367188 -26.832031 167.765625 -33.6875 C 174.160156 -40.550781 179.148438 -48.507812 182.734375 -57.5625 C 186.328125 -66.613281 188.125 -76.597656 188.125 -87.515625 L 188.125 -221.828125 L 205.90625 -221.828125 L 205.90625 -84.703125 C 205.90625 -72.222656 203.722656 -60.523438 199.359375 -49.609375 C 194.992188 -38.691406 188.832031 -29.253906 180.875 -21.296875 C 172.914062 -13.335938 163.476562 -7.015625 152.5625 -2.328125 C 141.644531 2.347656 129.789062 4.6875 117 4.6875 C 104.207031 4.6875 92.347656 2.347656 81.421875 -2.328125 C 70.503906 -7.015625 61.066406 -13.335938 53.109375 -21.296875 C 45.160156 -29.253906 39 -38.691406 34.625 -49.609375 C 30.257812 -60.523438 28.078125 -72.222656 28.078125 -84.703125 Z M 28.078125 -221.828125 "/></g></g></g><g fill="#ff5757" fill-opacity="1"><g transform="translate(290.805514, 371.700062)"><g><path d="M 28.078125 -327.59375 L 45.859375 -327.59375 L 45.859375 -109.515625 C 45.859375 -96.722656 48.117188 -84.472656 52.640625 -72.765625 C 57.171875 -61.066406 63.410156 -50.769531 71.359375 -41.875 C 79.316406 -32.988281 88.832031 -25.816406 99.90625 -20.359375 C 110.988281 -14.898438 123.082031 -12.171875 136.1875 -12.171875 C 147.726562 -12.171875 158.878906 -14.742188 169.640625 -19.890625 C 180.410156 -25.035156 189.925781 -32.050781 198.1875 -40.9375 C 206.457031 -49.832031 213.085938 -60.285156 218.078125 -72.296875 C 223.066406 -84.316406 225.5625 -97.1875 225.5625 -110.90625 C 225.5625 -124.320312 223.144531 -137.035156 218.3125 -149.046875 C 213.476562 -161.066406 206.925781 -171.519531 198.65625 -180.40625 C 190.382812 -189.300781 180.867188 -196.398438 170.109375 -201.703125 C 159.347656 -207.003906 148.039062 -209.65625 136.1875 -209.65625 C 121.207031 -209.65625 108.410156 -206.847656 97.796875 -201.234375 C 87.191406 -195.617188 76.898438 -187.660156 66.921875 -177.359375 L 66.921875 -198.421875 C 78.773438 -208.410156 90.316406 -215.585938 101.546875 -219.953125 C 112.785156 -224.316406 124.332031 -226.5 136.1875 -226.5 C 151.78125 -226.5 166.207031 -223.535156 179.46875 -217.609375 C 192.726562 -211.679688 204.113281 -203.488281 213.625 -193.03125 C 223.144531 -182.582031 230.632812 -170.335938 236.09375 -156.296875 C 241.550781 -142.265625 244.28125 -127.132812 244.28125 -110.90625 C 244.28125 -94.375 241.472656 -79.007812 235.859375 -64.8125 C 230.242188 -50.613281 222.597656 -38.367188 212.921875 -28.078125 C 203.253906 -17.785156 191.867188 -9.75 178.765625 -3.96875 C 165.660156 1.800781 151.46875 4.6875 136.1875 4.6875 C 120.582031 4.6875 106.148438 1.644531 92.890625 -4.4375 C 79.628906 -10.53125 68.160156 -18.722656 58.484375 -29.015625 C 48.816406 -39.304688 41.332031 -51.394531 36.03125 -65.28125 C 30.726562 -79.164062 28.078125 -93.910156 28.078125 -109.515625 Z M 28.078125 -327.59375 "/></g></g></g><g fill="#ffffff" fill-opacity="1"><g transform="translate(551.039059, 371.700062)"><g><path d="M 28.078125 -221.828125 L 45.859375 -221.828125 L 45.859375 -87.515625 C 45.859375 -76.910156 47.648438 -67.003906 51.234375 -57.796875 C 54.828125 -48.585938 59.742188 -40.628906 65.984375 -33.921875 C 72.222656 -27.222656 79.707031 -21.921875 88.4375 -18.015625 C 97.175781 -14.117188 106.695312 -12.171875 117 -12.171875 C 126.976562 -12.171875 136.332031 -14.039062 145.0625 -17.78125 C 153.800781 -21.53125 161.367188 -26.832031 167.765625 -33.6875 C 174.160156 -40.550781 179.148438 -48.507812 182.734375 -57.5625 C 186.328125 -66.613281 188.125 -76.597656 188.125 -87.515625 L 188.125 -221.828125 L 205.90625 -221.828125 L 205.90625 -84.703125 C 205.90625 -72.222656 203.722656 -60.523438 199.359375 -49.609375 C 194.992188 -38.691406 188.832031 -29.253906 180.875 -21.296875 C 172.914062 -13.335938 163.476562 -7.015625 152.5625 -2.328125 C 141.644531 2.347656 129.789062 4.6875 117 4.6875 C 104.207031 4.6875 92.347656 2.347656 81.421875 -2.328125 C 70.503906 -7.015625 61.066406 -13.335938 53.109375 -21.296875 C 45.160156 -29.253906 39 -38.691406 34.625 -49.609375 C 30.257812 -60.523438 28.078125 -72.222656 28.078125 -84.703125 Z M 28.078125 -221.828125 "/></g></g></g><g fill="#ffffff" fill-opacity="1"><g transform="translate(785.032052, 371.700062)"><g><path d="M 205.90625 0 L 188.125 0 L 188.125 -134.3125 C 188.125 -144.601562 186.40625 -154.347656 182.96875 -163.546875 C 179.539062 -172.753906 174.628906 -180.710938 168.234375 -187.421875 C 161.835938 -194.128906 154.269531 -199.507812 145.53125 -203.5625 C 136.800781 -207.625 127.289062 -209.65625 117 -209.65625 C 106.382812 -209.65625 96.707031 -207.703125 87.96875 -203.796875 C 79.238281 -199.898438 71.753906 -194.519531 65.515625 -187.65625 C 59.273438 -180.789062 54.4375 -172.753906 51 -163.546875 C 47.570312 -154.347656 45.859375 -144.601562 45.859375 -134.3125 L 45.859375 0 L 28.078125 0 L 28.078125 -137.125 C 28.078125 -149.601562 30.257812 -161.222656 34.625 -171.984375 C 39 -182.742188 45.082031 -192.179688 52.875 -200.296875 C 60.675781 -208.410156 70.035156 -214.804688 80.953125 -219.484375 C 91.878906 -224.160156 103.894531 -226.5 117 -226.5 C 130.101562 -226.5 142.113281 -224.160156 153.03125 -219.484375 C 163.945312 -214.804688 173.304688 -208.332031 181.109375 -200.0625 C 188.910156 -191.789062 194.992188 -182.273438 199.359375 -171.515625 C 203.722656 -160.753906 205.90625 -149.289062 205.90625 -137.125 Z M 205.90625 0 "/></g></g></g><g fill="#ff5757" fill-opacity="1"><g transform="translate(1019.067148, 371.700062)"><g><path d="M 28.078125 -282.65625 L 45.859375 -282.65625 L 45.859375 -221.828125 L 124.484375 -221.828125 L 124.484375 -204.984375 L 45.859375 -204.984375 L 45.859375 -60.375 C 45.859375 -47.269531 49.757812 -36.738281 57.5625 -28.78125 C 65.363281 -20.820312 75.347656 -16.84375 87.515625 -16.84375 L 124.484375 -16.84375 L 124.484375 0 L 91.25 0 C 70.664062 0 54.988281 -5.691406 44.21875 -17.078125 C 33.457031 -28.460938 28.078125 -43.515625 28.078125 -62.234375 Z M 28.078125 -282.65625 "/></g></g></g><g fill="#ff5757" fill-opacity="1"><g transform="translate(1149.167248, 371.700062)"><g><path d="M 28.078125 -221.828125 L 45.859375 -221.828125 L 45.859375 -87.515625 C 45.859375 -76.910156 47.648438 -67.003906 51.234375 -57.796875 C 54.828125 -48.585938 59.742188 -40.628906 65.984375 -33.921875 C 72.222656 -27.222656 79.707031 -21.921875 88.4375 -18.015625 C 97.175781 -14.117188 106.695312 -12.171875 117 -12.171875 C 126.976562 -12.171875 136.332031 -14.039062 145.0625 -17.78125 C 153.800781 -21.53125 161.367188 -26.832031 167.765625 -33.6875 C 174.160156 -40.550781 179.148438 -48.507812 182.734375 -57.5625 C 186.328125 -66.613281 188.125 -76.597656 188.125 -87.515625 L 188.125 -221.828125 L 205.90625 -221.828125 L 205.90625 -84.703125 C 205.90625 -72.222656 203.722656 -60.523438 199.359375 -49.609375 C 194.992188 -38.691406 188.832031 -29.253906 180.875 -21.296875 C 172.914062 -13.335938 163.476562 -7.015625 152.5625 -2.328125 C 141.644531 2.347656 129.789062 4.6875 117 4.6875 C 104.207031 4.6875 92.347656 2.347656 81.421875 -2.328125 C 70.503906 -7.015625 61.066406 -13.335938 53.109375 -21.296875 C 45.160156 -29.253906 39 -38.691406 34.625 -49.609375 C 30.257812 -60.523438 28.078125 -72.222656 28.078125 -84.703125 Z M 28.078125 -221.828125 "/></g></g></g></svg>