<svg xmlns="http://www.w3.org/2000/svg" xmlns:xlink="http://www.w3.org/1999/xlink" width="2560" zoomAndPan="magnify" viewBox="0 0 1920 1079.999946" height="1440" preserveAspectRatio="xMidYMid meet" version="1.0"><defs><g/></defs><rect x="-192" width="2304" fill="#ffffff" y="-107.999995" height="1295.999935" fill-opacity="1"/><rect x="-192" width="2304" fill="#000000" y="-107.999995" height="1295.999935" fill-opacity="1"/><g fill="#ff5757" fill-opacity="1"><g transform="translate(252.296984, 637.961858)"><g><path d="M 29.96875 -236.71875 L 48.9375 -236.71875 L 48.9375 -93.390625 C 48.9375 -82.066406 50.847656 -71.492188 54.671875 -61.671875 C 58.503906 -51.847656 63.75 -43.359375 70.40625 -36.203125 C 77.070312 -29.046875 85.066406 -23.382812 94.390625 -19.21875 C 103.710938 -15.0625 113.867188 -12.984375 124.859375 -12.984375 C 135.503906 -12.984375 145.488281 -14.976562 154.8125 -18.96875 C 164.132812 -22.96875 172.207031 -28.628906 179.03125 -35.953125 C 185.863281 -43.273438 191.191406 -51.765625 195.015625 -61.421875 C 198.847656 -71.078125 200.765625 -81.734375 200.765625 -93.390625 L 200.765625 -236.71875 L 219.734375 -236.71875 L 219.734375 -90.390625 C 219.734375 -77.078125 217.398438 -64.59375 212.734375 -52.9375 C 208.078125 -41.28125 201.503906 -31.207031 193.015625 -22.71875 C 184.523438 -14.226562 174.453125 -7.484375 162.796875 -2.484375 C 151.148438 2.503906 138.503906 5 124.859375 5 C 111.203125 5 98.546875 2.503906 86.890625 -2.484375 C 75.242188 -7.484375 65.175781 -14.226562 56.6875 -22.71875 C 48.195312 -31.207031 41.617188 -41.28125 36.953125 -52.9375 C 32.296875 -64.59375 29.96875 -77.078125 29.96875 -90.390625 Z M 29.96875 -236.71875 "/></g></g></g><g fill="#ff5757" fill-opacity="1"><g transform="translate(501.996421, 637.961858)"><g><path d="M 29.96875 -349.578125 L 48.9375 -349.578125 L 48.9375 -116.859375 C 48.9375 -103.210938 51.347656 -90.144531 56.171875 -77.65625 C 61.003906 -65.175781 67.664062 -54.191406 76.15625 -44.703125 C 84.644531 -35.210938 94.800781 -27.550781 106.625 -21.71875 C 118.445312 -15.894531 131.347656 -12.984375 145.328125 -12.984375 C 157.648438 -12.984375 169.550781 -15.726562 181.03125 -21.21875 C 192.519531 -26.71875 202.675781 -34.210938 211.5 -43.703125 C 220.320312 -53.191406 227.394531 -64.34375 232.71875 -77.15625 C 238.050781 -89.976562 240.71875 -103.710938 240.71875 -118.359375 C 240.71875 -132.671875 238.132812 -146.234375 232.96875 -159.046875 C 227.8125 -171.867188 220.820312 -183.023438 212 -192.515625 C 203.175781 -202.003906 193.019531 -209.578125 181.53125 -215.234375 C 170.039062 -220.898438 157.972656 -223.734375 145.328125 -223.734375 C 129.347656 -223.734375 115.695312 -220.734375 104.375 -214.734375 C 93.050781 -208.742188 82.066406 -200.257812 71.421875 -189.28125 L 71.421875 -211.75 C 84.066406 -222.40625 96.378906 -230.0625 108.359375 -234.71875 C 120.347656 -239.382812 132.671875 -241.71875 145.328125 -241.71875 C 161.972656 -241.71875 177.367188 -238.550781 191.515625 -232.21875 C 205.671875 -225.894531 217.820312 -217.15625 227.96875 -206 C 238.125 -194.851562 246.113281 -181.785156 251.9375 -166.796875 C 257.769531 -151.816406 260.6875 -135.671875 260.6875 -118.359375 C 260.6875 -100.710938 257.691406 -84.3125 251.703125 -69.15625 C 245.710938 -54.007812 237.554688 -40.941406 227.234375 -29.953125 C 216.910156 -18.972656 204.753906 -10.398438 190.765625 -4.234375 C 176.785156 1.921875 161.640625 5 145.328125 5 C 128.679688 5 113.28125 1.753906 99.125 -4.734375 C 84.976562 -11.234375 72.742188 -19.972656 62.421875 -30.953125 C 52.097656 -41.941406 44.109375 -54.84375 38.453125 -69.65625 C 32.796875 -84.476562 29.96875 -100.210938 29.96875 -116.859375 Z M 29.96875 -349.578125 "/></g></g></g><g fill="#ffffff" fill-opacity="1"><g transform="translate(779.69777, 637.961858)"><g><path d="M 29.96875 -236.71875 L 48.9375 -236.71875 L 48.9375 -93.390625 C 48.9375 -82.066406 50.847656 -71.492188 54.671875 -61.671875 C 58.503906 -51.847656 63.75 -43.359375 70.40625 -36.203125 C 77.070312 -29.046875 85.066406 -23.382812 94.390625 -19.21875 C 103.710938 -15.0625 113.867188 -12.984375 124.859375 -12.984375 C 135.503906 -12.984375 145.488281 -14.976562 154.8125 -18.96875 C 164.132812 -22.96875 172.207031 -28.628906 179.03125 -35.953125 C 185.863281 -43.273438 191.191406 -51.765625 195.015625 -61.421875 C 198.847656 -71.078125 200.765625 -81.734375 200.765625 -93.390625 L 200.765625 -236.71875 L 219.734375 -236.71875 L 219.734375 -90.390625 C 219.734375 -77.078125 217.398438 -64.59375 212.734375 -52.9375 C 208.078125 -41.28125 201.503906 -31.207031 193.015625 -22.71875 C 184.523438 -14.226562 174.453125 -7.484375 162.796875 -2.484375 C 151.148438 2.503906 138.503906 5 124.859375 5 C 111.203125 5 98.546875 2.503906 86.890625 -2.484375 C 75.242188 -7.484375 65.175781 -14.226562 56.6875 -22.71875 C 48.195312 -31.207031 41.617188 -41.28125 36.953125 -52.9375 C 32.296875 -64.59375 29.96875 -77.078125 29.96875 -90.390625 Z M 29.96875 -236.71875 "/></g></g></g><g fill="#ffffff" fill-opacity="1"><g transform="translate(1029.397206, 637.961858)"><g><path d="M 219.734375 0 L 200.765625 0 L 200.765625 -143.328125 C 200.765625 -154.316406 198.929688 -164.722656 195.265625 -174.546875 C 191.609375 -184.367188 186.363281 -192.859375 179.53125 -200.015625 C 172.707031 -207.171875 164.632812 -212.910156 155.3125 -217.234375 C 145.988281 -221.566406 135.835938 -223.734375 124.859375 -223.734375 C 113.535156 -223.734375 103.210938 -221.648438 93.890625 -217.484375 C 84.566406 -213.328125 76.570312 -207.585938 69.90625 -200.265625 C 63.25 -192.941406 58.085938 -184.367188 54.421875 -174.546875 C 50.765625 -164.722656 48.9375 -154.316406 48.9375 -143.328125 L 48.9375 0 L 29.96875 0 L 29.96875 -146.328125 C 29.96875 -159.640625 32.296875 -172.039062 36.953125 -183.53125 C 41.617188 -195.019531 48.113281 -205.09375 56.4375 -213.75 C 64.757812 -222.40625 74.742188 -229.226562 86.390625 -234.21875 C 98.046875 -239.21875 110.867188 -241.71875 124.859375 -241.71875 C 138.835938 -241.71875 151.648438 -239.21875 163.296875 -234.21875 C 174.953125 -229.226562 184.941406 -222.320312 193.265625 -213.5 C 201.585938 -204.675781 208.078125 -194.519531 212.734375 -183.03125 C 217.398438 -171.539062 219.734375 -159.304688 219.734375 -146.328125 Z M 219.734375 0 "/></g></g></g><g fill="#ff5757" fill-opacity="1"><g transform="translate(1279.141573, 637.961858)"><g><path d="M 29.96875 -301.640625 L 48.9375 -301.640625 L 48.9375 -236.71875 L 132.84375 -236.71875 L 132.84375 -218.734375 L 48.9375 -218.734375 L 48.9375 -64.421875 C 48.9375 -50.441406 53.097656 -39.207031 61.421875 -30.71875 C 69.742188 -22.226562 80.398438 -17.984375 93.390625 -17.984375 L 132.84375 -17.984375 L 132.84375 0 L 97.390625 0 C 75.410156 0 58.675781 -6.070312 47.1875 -18.21875 C 35.707031 -30.375 29.96875 -46.441406 29.96875 -66.421875 Z M 29.96875 -301.640625 "/></g></g></g><g fill="#ff5757" fill-opacity="1"><g transform="translate(1417.974456, 637.961858)"><g><path d="M 29.96875 -236.71875 L 48.9375 -236.71875 L 48.9375 -93.390625 C 48.9375 -82.066406 50.847656 -71.492188 54.671875 -61.671875 C 58.503906 -51.847656 63.75 -43.359375 70.40625 -36.203125 C 77.070312 -29.046875 85.066406 -23.382812 94.390625 -19.21875 C 103.710938 -15.0625 113.867188 -12.984375 124.859375 -12.984375 C 135.503906 -12.984375 145.488281 -14.976562 154.8125 -18.96875 C 164.132812 -22.96875 172.207031 -28.628906 179.03125 -35.953125 C 185.863281 -43.273438 191.191406 -51.765625 195.015625 -61.421875 C 198.847656 -71.078125 200.765625 -81.734375 200.765625 -93.390625 L 200.765625 -236.71875 L 219.734375 -236.71875 L 219.734375 -90.390625 C 219.734375 -77.078125 217.398438 -64.59375 212.734375 -52.9375 C 208.078125 -41.28125 201.503906 -31.207031 193.015625 -22.71875 C 184.523438 -14.226562 174.453125 -7.484375 162.796875 -2.484375 C 151.148438 2.503906 138.503906 5 124.859375 5 C 111.203125 5 98.546875 2.503906 86.890625 -2.484375 C 75.242188 -7.484375 65.175781 -14.226562 56.6875 -22.71875 C 48.195312 -31.207031 41.617188 -41.28125 36.953125 -52.9375 C 32.296875 -64.59375 29.96875 -77.078125 29.96875 -90.390625 Z M 29.96875 -236.71875 "/></g></g></g></svg>