<svg xmlns="http://www.w3.org/2000/svg" xmlns:xlink="http://www.w3.org/1999/xlink" width="40" zoomAndPan="magnify" viewBox="0 0 30 30.000001" height="40" preserveAspectRatio="xMidYMid meet" version="1.0"><defs><g/></defs><g fill="#ff5757" fill-opacity="1"><g transform="translate(3.174692, 25.331896)"><g><path d="M 16.0625 -9.28125 L 16.0625 -21.125 L 16.984375 -21.125 L 16.984375 -9.28125 C 16.984375 -7.988281 16.472656 -6.882812 15.453125 -5.96875 C 14.429688 -5.050781 13.203125 -4.59375 11.765625 -4.59375 C 10.335938 -4.59375 9.113281 -5.050781 8.09375 -5.96875 C 7.070312 -6.882812 6.5625 -7.988281 6.5625 -9.28125 L 6.5625 -21.125 L 7.484375 -21.125 L 7.484375 -9.28125 C 7.484375 -8.25 7.898438 -7.363281 8.734375 -6.625 C 9.578125 -5.882812 10.585938 -5.515625 11.765625 -5.515625 C 12.953125 -5.515625 13.960938 -5.882812 14.796875 -6.625 C 15.640625 -7.363281 16.0625 -8.25 16.0625 -9.28125 Z M 17.890625 -9.28125 L 17.890625 -21.125 L 18.8125 -21.125 L 18.8125 -9.28125 C 18.8125 -8.394531 18.625 -7.550781 18.25 -6.75 C 17.875 -5.945312 17.375 -5.25 16.75 -4.65625 C 16.125 -4.070312 15.375 -3.609375 14.5 -3.265625 C 13.632812 -2.921875 12.722656 -2.75 11.765625 -2.75 C 10.816406 -2.75 9.910156 -2.921875 9.046875 -3.265625 C 8.179688 -3.609375 7.429688 -4.070312 6.796875 -4.65625 C 6.171875 -5.25 5.671875 -5.945312 5.296875 -6.75 C 4.921875 -7.550781 4.734375 -8.394531 4.734375 -9.28125 L 4.734375 -21.125 L 5.65625 -21.125 L 5.65625 -9.28125 C 5.65625 -8.269531 5.925781 -7.332031 6.46875 -6.46875 C 7.019531 -5.601562 7.765625 -4.921875 8.703125 -4.421875 C 9.640625 -3.921875 10.660156 -3.671875 11.765625 -3.671875 C 12.878906 -3.671875 13.90625 -3.921875 14.84375 -4.421875 C 15.78125 -4.921875 16.519531 -5.601562 17.0625 -6.46875 C 17.613281 -7.332031 17.890625 -8.269531 17.890625 -9.28125 Z M 19.734375 -9.28125 L 19.734375 -21.125 L 20.65625 -21.125 L 20.65625 -9.28125 C 20.65625 -8.15625 20.414062 -7.070312 19.9375 -6.03125 C 19.46875 -5 18.835938 -4.109375 18.046875 -3.359375 C 17.253906 -2.617188 16.3125 -2.023438 15.21875 -1.578125 C 14.125 -1.140625 12.972656 -0.921875 11.765625 -0.921875 C 10.566406 -0.921875 9.421875 -1.140625 8.328125 -1.578125 C 7.234375 -2.023438 6.289062 -2.617188 5.5 -3.359375 C 4.707031 -4.109375 4.070312 -5 3.59375 -6.03125 C 3.125 -7.070312 2.890625 -8.15625 2.890625 -9.28125 L 2.890625 -21.125 L 3.8125 -21.125 L 3.8125 -9.28125 C 3.8125 -7.9375 4.164062 -6.691406 4.875 -5.546875 C 5.59375 -4.410156 6.5625 -3.507812 7.78125 -2.84375 C 9.007812 -2.175781 10.34375 -1.84375 11.78125 -1.84375 C 13.21875 -1.84375 14.546875 -2.175781 15.765625 -2.84375 C 16.984375 -3.507812 17.945312 -4.410156 18.65625 -5.546875 C 19.375 -6.691406 19.734375 -7.9375 19.734375 -9.28125 Z M 21.578125 -9.28125 L 21.578125 -21.125 L 22.484375 -21.125 L 22.484375 -9.28125 C 22.484375 -7.445312 22.003906 -5.742188 21.046875 -4.171875 C 20.085938 -2.609375 18.785156 -1.367188 17.140625 -0.453125 C 15.492188 0.460938 13.703125 0.921875 11.765625 0.921875 C 9.835938 0.921875 8.050781 0.460938 6.40625 -0.453125 C 4.757812 -1.367188 3.457031 -2.609375 2.5 -4.171875 C 1.539062 -5.742188 1.0625 -7.445312 1.0625 -9.28125 L 1.0625 -21.125 L 1.984375 -21.125 L 1.984375 -9.28125 C 1.984375 -8.03125 2.238281 -6.832031 2.75 -5.6875 C 3.269531 -4.539062 3.96875 -3.550781 4.84375 -2.71875 C 5.71875 -1.894531 6.757812 -1.234375 7.96875 -0.734375 C 9.1875 -0.242188 10.453125 0 11.765625 0 C 13.085938 0 14.351562 -0.242188 15.5625 -0.734375 C 16.78125 -1.234375 17.828125 -1.894531 18.703125 -2.71875 C 19.578125 -3.550781 20.273438 -4.539062 20.796875 -5.6875 C 21.316406 -6.832031 21.578125 -8.03125 21.578125 -9.28125 Z M 21.578125 -9.28125 "/></g></g></g></svg>